<?xml version="1.0" standalone="no"?>
<!DOCTYPE svg PUBLIC "-//W3C//DTD SVG 20010904//EN"
 "http://www.w3.org/TR/2001/REC-SVG-20010904/DTD/svg10.dtd">
<svg version="1.0" xmlns="http://www.w3.org/2000/svg"
 width="1029.000000pt" height="623.000000pt" viewBox="0 0 1029.000000 623.000000"
 preserveAspectRatio="xMidYMid meet">

<g transform="translate(0.000000,623.000000) scale(0.100000,-0.100000)"
fill="#000000" stroke="none">
<path d="M4924 5809 c-100 -23 -208 -122 -236 -216 l-12 -43 -123 0 -123 0 0
-35 0 -35 453 2 452 3 3 26 c4 35 -46 145 -88 193 -45 51 -98 83 -167 101 -63
17 -98 17 -159 4z"/>
<path d="M4680 5402 c0 -65 101 -185 188 -225 71 -33 198 -31 272 4 88 41 157
123 185 217 l6 22 -325 0 c-308 0 -326 -1 -326 -18z"/>
<path d="M5273 5205 c-66 -67 -160 -115 -241 -122 -75 -7 -178 22 -250 71
l-51 34 -102 -34 c-202 -68 -375 -177 -526 -330 -128 -131 -248 -325 -300
-487 -13 -40 -24 -57 -38 -59 -38 -8 -45 2 -45 58 0 30 -7 68 -15 83 -19 38
-71 81 -107 88 -15 3 -31 10 -34 15 -3 5 -128 8 -282 8 l-277 -1 -6 63 c-5 60
-6 59 -7 -29 -2 -83 3 -105 20 -88 9 9 538 11 538 2 0 -5 9 -6 19 -2 27 8 83
-50 99 -102 14 -46 16 -122 3 -141 -6 -11 -14 -8 -34 12 -14 14 -33 26 -42 26
-8 0 -15 5 -15 11 0 7 -10 9 -25 7 -14 -3 -28 -1 -31 3 -8 14 -488 11 -501 -2
-15 -15 -22 12 -26 106 -2 39 -3 -130 -3 -375 0 -245 2 -416 5 -380 l6 65 300
5 c260 4 304 7 332 22 52 29 77 73 81 148 5 77 13 90 58 90 46 0 43 18 -3 22
-41 3 -50 19 -39 64 6 23 10 24 99 26 l92 2 -95 5 -95 6 -2 60 c-3 109 -20
100 192 100 212 0 195 9 192 -100 l-2 -60 -70 -6 -70 -5 67 -2 c63 -2 68 -4
74 -26 10 -41 1 -61 -29 -64 -35 -4 -35 -20 1 -24 25 -3 27 -7 30 -50 l3 -48
50 0 49 0 0 99 c0 55 4 102 9 105 14 9 309 26 606 35 309 10 666 0 845 -23 86
-12 116 -13 121 -4 10 16 21 79 16 85 -3 2 -58 11 -123 19 -180 23 -742 30
-1074 13 -151 -7 -301 -14 -334 -14 l-58 0 -2 80 -1 80 -52 3 -53 3 0 -35 c0
-38 -9 -49 -28 -37 -35 22 101 172 219 242 66 40 228 108 257 109 9 0 12 -46
12 -199 0 -150 -3 -200 -12 -204 -35 -12 14 -13 197 -5 110 5 288 8 397 6
l196 -3 42 161 c23 89 54 204 69 255 l28 94 69 -3 c38 -2 89 -8 114 -13 86
-19 130 -88 138 -215 l5 -81 131 -6 c80 -4 134 -3 140 3 5 5 10 74 10 152 0
164 -14 231 -72 343 -43 81 -132 174 -216 224 -111 67 -314 122 -435 120 -54
-1 -58 -3 -108 -54z m-1753 -997 c22 -35 43 -72 46 -83 3 -13 -10 -47 -37 -93
l-42 -73 -85 3 -85 3 -44 74 -43 73 26 47 c15 25 38 61 51 79 23 31 26 32 99
32 l75 0 39 -62z"/>
<path d="M3361 4136 c-20 -36 0 -66 43 -66 25 0 36 6 43 23 24 54 -58 95 -86
43z"/>
<path d="M2818 4563 l-3 -128 -277 -3 -278 -2 0 -25 0 -25 274 0 c240 0 275
-2 280 -16 3 -9 6 -127 6 -263 0 -179 -3 -250 -12 -259 -9 -9 -85 -12 -280
-12 -261 0 -268 0 -268 -20 0 -20 7 -20 274 -20 240 0 275 -2 280 -16 3 -9 6
-63 6 -120 l0 -104 64 0 c77 0 118 11 71 20 l-30 5 -3 558 -2 557 -50 0 -49 0
-3 -127z"/>
<path d="M2930 4151 c0 -291 2 -536 6 -545 9 -23 33 -20 39 7 3 12 4 253 3
536 l-3 514 -22 8 -22 8 -1 -528z"/>
<path d="M2393 4363 c76 -2 198 -2 270 0 73 1 11 3 -138 3 -148 0 -208 -2
-132 -3z"/>
<path d="M5821 4328 c-4 -13 -18 -48 -29 -79 l-21 -57 31 -6 c30 -6 31 -7 24
-53 -3 -25 -17 -65 -30 -89 -29 -51 -25 -54 70 -54 56 0 67 3 87 26 12 14 28
42 35 62 11 30 52 238 52 265 0 4 -47 7 -105 7 -100 0 -106 -1 -114 -22z"/>
<path d="M3756 4175 c-5 -13 18 -15 169 -15 151 0 174 2 169 15 -5 12 -33 15
-169 15 -136 0 -164 -3 -169 -15z"/>
<path d="M6010 4103 c-6 -16 -14 -37 -19 -48 -7 -18 1 -23 93 -56 56 -19 121
-47 146 -62 156 -91 250 -250 250 -421 0 -154 -57 -307 -204 -555 -102 -173
-146 -304 -146 -437 0 -132 40 -233 138 -351 37 -45 179 -169 199 -175 6 -2
26 17 43 41 l33 45 -39 29 c-90 70 -182 175 -221 253 -36 73 -38 83 -37 163 1
105 38 213 117 348 93 156 124 216 162 308 43 104 75 243 75 330 0 210 -127
423 -306 517 -62 33 -239 98 -265 98 -5 0 -14 -12 -19 -27z"/>
<path d="M4625 4088 c-99 -5 -182 -13 -185 -18 -3 -5 -33 -23 -65 -41 -33 -17
-79 -45 -102 -61 -38 -26 -43 -33 -43 -68 l0 -40 -49 0 c-47 0 -50 -2 -120
-75 -266 -280 -477 -719 -606 -1260 -18 -77 -36 -160 -40 -185 -4 -25 -11 -52
-16 -61 -4 -9 -62 -53 -128 -99 -67 -46 -121 -85 -121 -87 0 -2 105 -3 234 -3
l233 0 52 149 c153 445 349 787 588 1026 155 155 305 245 443 266 161 24 260
-10 381 -130 166 -167 280 -455 343 -866 20 -124 46 -378 46 -437 0 -4 111 -8
246 -8 l247 0 -120 95 -119 95 7 68 c34 305 31 669 -6 902 -53 326 -160 575
-317 735 -43 44 -78 87 -78 97 0 17 -17 18 -262 16 -145 0 -344 -5 -443 -10z"/>
<path d="M3925 4070 c-23 -10 -104 -93 -128 -132 l-17 -28 138 0 139 0 -7 40
c-7 41 -28 78 -61 111 -21 21 -33 22 -64 9z"/>
<path d="M2393 3843 c75 -2 199 -2 275 0 75 1 13 3 -138 3 -151 0 -213 -2
-137 -3z"/>
<path d="M2393 3773 c75 -2 199 -2 275 0 75 1 13 3 -138 3 -151 0 -213 -2
-137 -3z"/>
<path d="M2719 1683 c-6 -16 -39 -110 -74 -210 l-63 -183 73 0 73 0 27 80 c20
62 31 80 45 80 17 0 16 -6 -11 -80 l-29 -80 73 0 74 0 10 33 c18 53 121 351
128 370 7 16 1 18 -66 15 l-74 -3 -25 -72 c-18 -52 -30 -73 -42 -73 -15 0 -14
7 8 72 13 39 24 73 24 75 0 2 -32 3 -70 3 -68 0 -71 -1 -81 -27z"/>
<path d="M4595 1698 c-3 -7 -11 -32 -19 -55 l-15 -43 44 0 c25 0 45 -3 45 -6
0 -3 -22 -71 -50 -151 -27 -80 -50 -147 -50 -149 0 -3 33 -4 72 -2 l73 3 51
150 51 150 51 3 c50 3 51 3 66 49 9 26 16 50 16 55 0 4 -74 8 -165 8 -123 0
-167 -3 -170 -12z"/>
<path d="M5339 1683 c-6 -16 -39 -110 -74 -210 l-63 -183 72 0 73 0 27 80 c21
60 33 80 46 80 17 0 16 -7 -11 -80 l-29 -80 74 0 73 0 68 198 c38 108 70 203
73 210 3 10 -12 12 -69 10 l-74 -3 -25 -72 c-18 -54 -29 -73 -42 -73 -22 0
-23 -5 7 74 14 37 25 69 25 71 0 3 -32 5 -70 5 -68 0 -71 -1 -81 -27z"/>
<path d="M6033 1500 l-71 -210 67 0 c67 0 68 0 78 33 6 17 38 111 72 207 34
96 61 176 61 178 0 1 -30 2 -67 2 l-68 0 -72 -210z"/>
<path d="M3154 1586 c-48 -21 -105 -77 -125 -121 -27 -59 -24 -99 10 -137 l29
-33 119 -3 118 -4 33 99 c38 118 39 143 8 180 -21 24 -32 28 -92 30 -44 2 -80
-2 -100 -11z m65 -110 c26 -31 -25 -90 -55 -65 -19 15 -18 22 7 53 23 30 32
32 48 12z"/>
<path d="M3545 1582 c-49 -24 -99 -75 -119 -122 -15 -38 -96 -269 -96 -277 0
-2 30 -3 67 -1 l66 3 17 50 17 50 54 6 c66 7 103 26 151 76 68 70 82 157 32
204 -34 32 -133 37 -189 11z m72 -108 c10 -27 -14 -64 -42 -64 -31 0 -32 18
-4 54 23 30 37 33 46 10z"/>
<path d="M3925 1582 c-49 -24 -99 -75 -119 -122 -15 -38 -96 -269 -96 -277 0
-2 30 -3 67 -1 l66 3 17 50 17 50 54 6 c66 7 103 26 151 76 64 66 78 149 34
199 -20 24 -32 28 -87 31 -48 3 -74 -1 -104 -15z m72 -108 c10 -27 -14 -64
-42 -64 -31 0 -32 18 -4 54 23 30 37 33 46 10z"/>
<path d="M4197 1487 c-20 -62 -37 -123 -37 -135 0 -34 35 -62 78 -62 l37 -1
-25 -20 c-18 -15 -32 -19 -56 -14 -31 5 -33 4 -48 -42 -19 -55 -13 -63 50 -63
82 0 170 48 209 114 18 32 125 315 125 333 0 1 -31 3 -68 3 l-68 0 -29 -91
c-27 -84 -40 -108 -51 -97 -4 4 30 117 51 171 6 15 0 17 -62 17 l-69 0 -37
-113z"/>
<path d="M4990 1584 c-74 -32 -140 -121 -140 -188 0 -25 9 -45 29 -68 28 -31
33 -33 98 -33 60 0 76 4 119 30 63 39 107 108 108 171 1 39 -3 50 -32 75 -28
25 -40 29 -90 29 -31 -1 -73 -8 -92 -16z m68 -126 c4 -32 -34 -64 -55 -46 -18
14 -17 21 8 52 25 32 43 29 47 -6z"/>
<path d="M5785 1589 c-45 -12 -115 -77 -136 -123 -27 -60 -24 -100 10 -138 28
-32 32 -33 103 -33 40 0 83 6 96 13 l22 13 -20 39 c-16 32 -25 38 -46 37 -15
-1 -29 4 -31 11 -4 9 19 12 91 12 94 0 97 1 106 26 6 14 10 34 10 46 0 34 -29
85 -56 97 -29 13 -105 13 -149 0z m68 -93 c8 -19 -1 -26 -36 -26 -29 0 -30 0
-12 20 21 23 41 26 48 6z"/>
<path d="M6335 1582 c-49 -24 -99 -75 -119 -122 -15 -38 -96 -269 -96 -277 0
-2 30 -3 67 -1 l66 3 17 50 17 50 54 6 c66 7 103 26 151 76 68 70 82 157 32
204 -34 32 -133 37 -189 11z m72 -108 c10 -27 -14 -64 -42 -64 -31 0 -32 18
-4 54 23 30 37 33 46 10z"/>
</g>
</svg>
